<svg xmlns="http://www.w3.org/2000/svg" width="640" height="250" viewBox="0 0 640 250">
<defs><linearGradient id="g" x1="0" x2="1"><stop stop-color="#fb7185"/><stop offset=".5" stop-color="#e879f9"/><stop offset="1" stop-color="#7c3aed"/></linearGradient><filter id="gl"><feGaussianBlur stdDeviation="4" result="b"/><feMerge><feMergeNode in="b"/><feMergeNode in="SourceGraphic"/></feMerge></filter>
<style>@keyframes ring{from{stroke-dashoffset:300}to{stroke-dashoffset:75}}@keyframes row{from{opacity:0;transform:translateX(-25px)}to{opacity:1;transform:translateX(0)}}.r{animation:row .7s ease forwards}.ring{stroke-dasharray:300;stroke-dashoffset:300;animation:ring 1.8s ease forwards}</style></defs>
<rect width="640" height="250" rx="24" fill="#0d0814" stroke="#6d3b83"/><circle cx="130" cy="125" r="72" fill="#160d23" stroke="#2d1838" stroke-width="16"/><circle class="ring" cx="130" cy="125" r="72" fill="none" stroke="url(#g)" stroke-width="16" transform="rotate(-90 130 125)" filter="url(#gl)"/>
<text x="130" y="119" text-anchor="middle" font-family="ui-monospace,monospace" font-size="13" fill="#94a3b8">PROFILE</text><text x="130" y="145" text-anchor="middle" font-family="ui-sans-serif,system-ui" font-size="27" font-weight="800" fill="#fff">66</text><text x="130" y="164" text-anchor="middle" font-family="ui-monospace,monospace" font-size="10" fill="#f9a8d4">REPOS</text>
<g font-family="ui-monospace,monospace" font-size="13" fill="#e2e8f0"><g class="r" style="animation-delay:.2s"><text x="250" y="62" fill="#94a3b8">REPOSITORIES</text><text x="560" y="62" text-anchor="end" fill="#fff">66</text><rect x="250" y="72" width="310" height="5" rx="3" fill="#2a1936"/><rect x="250" y="72" width="235" height="5" rx="3" fill="url(#g)"/></g><g class="r" style="animation-delay:.45s"><text x="250" y="112" fill="#94a3b8">FOLLOWERS</text><text x="560" y="112" text-anchor="end" fill="#fff">2</text><rect x="250" y="122" width="310" height="5" rx="3" fill="#2a1936"/><rect x="250" y="122" width="72" height="5" rx="3" fill="#e879f9"/></g><g class="r" style="animation-delay:.7s"><text x="250" y="162" fill="#94a3b8">STARS</text><text x="560" y="162" text-anchor="end" fill="#fff">1</text><rect x="250" y="172" width="310" height="5" rx="3" fill="#2a1936"/><rect x="250" y="172" width="45" height="5" rx="3" fill="#a78bfa"/></g></g>
<text x="250" y="214" font-family="ui-sans-serif,system-ui" font-size="11" fill="#64748b">Live profile facts verified from GitHub; contribution counts are intentionally omitted.</text>
</svg>